<svg xmlns="http://www.w3.org/2000/svg" width="32" height="32" viewBox="0 0 32 32">
    <g transform="translate(-39 -310)">
        <circle cx="16" cy="16" r="16" fill="#aa613a" transform="translate(39 310)"/>
        <g>
            <g>
                <path fill="#fff" d="M10.993 16.667H4.008A3.66 3.66 0 0 1 0 12.633V4.025a4.091 4.091 0 0 1 1.054-2.966A4.053 4.053 0 0 1 4.008 0h6.985A3.656 3.656 0 0 1 15 4.025v8.608a4.076 4.076 0 0 1-1.038 2.986 4.016 4.016 0 0 1-2.969 1.048zm-6.827-5.22a.65.65 0 0 0-.557.312.655.655 0 0 0 .544 1.005.584.584 0 0 0 .081-.005h6.534a.658.658 0 0 0 0-1.308H4.233a.667.667 0 0 0-.068-.004zm.068-3.8a.65.65 0 0 0 0 1.3h6.534a.65.65 0 0 0 0-1.3zm0-3.774v.008a.649.649 0 0 0 0 1.3h2.491a.654.654 0 0 0 0-1.308z" transform="translate(45 316) translate(2.5 1.667) translate(0)"/>
            </g>
        </g>
    </g>
</svg>
